<svg id="Layer_1" data-name="Layer 1" xmlns="http://www.w3.org/2000/svg" xmlns:xlink="http://www.w3.org/1999/xlink" viewBox="0 0 1200 550"><defs><style>.cls-1{fill:none;}.cls-2{clip-path:url(#clip-path);}.cls-3{clip-path:url(#clip-path-2);}.cls-4{fill:#fff;}.cls-5{fill:#35a761;stroke:#000;stroke-miterlimit:10;}.cls-6{clip-path:url(#clip-path-3);}.cls-7{clip-path:url(#clip-path-4);}</style><clipPath id="clip-path"><rect class="cls-1" x="49.94" y="148.5" width="1100" height="252.94"/></clipPath><clipPath id="clip-path-2"><rect class="cls-1" x="49.94" y="148.5" width="1100" height="252.94"/></clipPath><clipPath id="clip-path-3"><rect class="cls-1" x="50" y="148.53" width="1100" height="252.94"/></clipPath><clipPath id="clip-path-4"><rect class="cls-1" x="50" y="148.53" width="1100" height="252.94"/></clipPath></defs><g id="Layer_2" data-name="Layer 2"><g class="cls-2"><g class="cls-3"><path class="cls-4" d="M1146.53,215.53c-13.14-20.35-24.06-17.61-41.94.18a95.54,95.54,0,0,0-19.42,28.37,284.29,284.29,0,0,0-24.85,88.68c-.9,8.49-.47,16.49-8.72,22.59-7.24,5.26-13.14,12.3-22.12,15.14-6.4,2-12.21,1.81-16.66-3.92-7.18-9.24-5.41-29.74,3.34-37.44a215,215,0,0,0,49.77-63.28c6.83-13.17,12.15-26.92,12.61-41.92.5-16.28-10.35-24.41-26.16-20a40.55,40.55,0,0,0-17.44,10.53,100.83,100.83,0,0,0-22.44,32.9c-13.28,30.9-22.32,62.85-24.21,96.54-.15,2.73.55,5.61-2.27,7.85-10.49,8.34-21,16.68-34.88,19.15-7.82,1.4-15.93,2.24-23.26-1.77-3.14-1.72-6.94-4-6.54-7.85s5-3.28,7.88-4.1c12.64-3.57,25-7.58,34.42-17.44a29.07,29.07,0,0,0,5.81-31c-4.3-9-15.38-14.53-27.53-13.45a41.56,41.56,0,0,0-30.2,17.09c-2.21,2.9-4.18,5.81-6.16,8.86A9.24,9.24,0,0,1,895,325c-4.71-1.13-1.86-5.32-2-8.19a128.45,128.45,0,0,0-.38-17.1c-2.47-13.8-15.11-21.24-29.53-18.1-12.24,2.67-19.45,14.27-16.89,27.23a38.05,38.05,0,0,0,16,23.49c2.21,1.66,5.58,2.91,3.66,6.6-6.86,13.6-14.24,26.91-29.3,33.31-10.2,4.3-17.15.35-18.92-10.44-1.89-11.42,1.77-22,6-32.38,2.55-6.31,5.52-12.47,8.08-18.78,1.54-3.8,2.44-7.84-2.45-10.17a9.32,9.32,0,0,0-12.61,2.47c-3.84,4.94-5.44,10.84-7.59,16.57-6.13,16.51-12.73,32.82-24.68,46.31-4.21,4.73-9.36,8.72-16.16,6.3s-7.82-8.72-8.14-15c-.9-18.29,7.36-33.2,17.76-47.39,2.91-4.09,8.52-8.4,1.4-13.43-6.05-4.27-11.8-3.08-16.16,2.62-10.15,13.23-19.13,27.18-22.65,43.6a18.47,18.47,0,0,1-8.72,12.88c-5.52,3.43-10.93,7.09-16.62,10.2-3.9,2.12-8.32,6.63-12.71,2.71-3.6-3.23-1-8.26.5-12.15,5.2-13.72,10.87-27.3,16.22-41,1.94-5,4.1-10.43-.5-15.09a16.42,16.42,0,0,0-18.11-3.6,49.59,49.59,0,0,0-9.68,4.8,116.74,116.74,0,0,0-35,33.34c-1.83,2.58-2.91,5.81-6.72,7.64.15-14.53,4.07-26.16,15.79-35.37a216.53,216.53,0,0,0,27.93-28.55c13.6-15.64,24.85-32.79,29.07-53.43,3.46-17.29-7-28.63-24.74-27.64a36.59,36.59,0,0,0-23.89,11.48,109.22,109.22,0,0,0-26.86,44.94,355.91,355.91,0,0,0-19.59,97.73c-.53,11-6.83,14.79-17.44,19.27,4.88-13,1-22-5.21-30.46-4.21-5.82-8.51-11.63-12.93-17.27-3.32-4.24-5.09-8.52-2.62-13.89s2.91-11.63-3.81-14.54-12.61,0-16.65,6.05a73.45,73.45,0,0,0-4,7.61c-8.72,16.6-17,33.29-26,49.68-5.5,10.12-17.76,16.89-24.8,13.37-10.9-5.4-5.81-15.49-5.81-24a16.22,16.22,0,0,1,1-4.18,202.12,202.12,0,0,1,12-34.65c4.19-8.49,1.69-11.89-7.67-12.24a12.56,12.56,0,0,0-12.39,7.21c-2.73,5-5.14,10.26-7.41,15.52-3.23,7.41-10.29,6.95-15.81,5.81s-1.89-6.57-1.66-10a47.43,47.43,0,0,0-.81-16c-3.81-13.55-15.09-20.18-29.36-17.18-13.66,2.9-21,16.8-15.67,32.23A34.87,34.87,0,0,0,438.35,327c11.62,11.63,11.62,11.63,1.94,25.64a70.52,70.52,0,0,1-11.83,13.51c-6.19,5.44-13.54,10.44-22.12,6.11-7.76-3.9-7.21-11.86-6.54-19a73.21,73.21,0,0,1,3.43-16.57c2.91-8.55,6.92-16.71,10.35-25.09,1.69-4.09,3.2-8.48-2.12-11.19a9.52,9.52,0,0,0-13.09,3.09l-.2.34a67.26,67.26,0,0,0-6.91,15.7c-6,16.16-12.5,32.15-24,45.49-4.36,5.06-9.6,9.57-16.89,7s-7.91-9.6-8.08-16.16c-.53-18.23,7.9-33.11,18.48-47.12,2.74-3.67,6.95-7.36,1.43-11.89s-11.16-4.83-15.44.52c-15.58,19.42-28.28,40.2-25.11,66.54,1.54,11.94,6.89,21.51,18.72,25.9a31.58,31.58,0,0,0,32.5-6.17c4.33-3.63,8.72-7.2,12.76-10.58,12.09,22.42,30.14,25.82,52,8.72,2-1.54,3.81-3.28,5.67-5a82.86,82.86,0,0,0,21.42-29.5c4-9.8,12.07-7.7,18.37-6.89,7.24.93,2.47,7.24,2.07,11.28-.18,1.71-.24,3.55-.29,5.35C483.72,384.13,504,397.15,531,385.09a67.27,67.27,0,0,0,7.24-4,7.64,7.64,0,0,1,9.1-.64c23.26,13.63,47.15,11.07,71.45,3.83,2.91-.84,5.26-3.37,8.95-.66,10.87,8,14.94,6.8,19.86-6.25,7.15-19,19.94-33.93,34.7-47.41,2.36-2.16,4.68-5.61,9.68-3.84-.46,1.8-.72,3.49-1.3,5.06-4.42,12.09-10.53,23.74-11.63,36.8-1.4,16.36,6.89,23.25,23.25,20.11a99.69,99.69,0,0,0,32.12-12.82c3.93-2.41,6.11-2.9,9.33,1.8,12,17.79,32.42,19.63,48.29,4.89,3.63-3.34,6.8-7.15,10.29-10.87,12.29,22.44,26.16,26.88,46.51,14.88a74.46,74.46,0,0,0,11.22-8.46A90.55,90.55,0,0,0,882,348.4c2.55-5.35,5.4-9.62,12.12-7.82s2.9,7.21,3.08,10.85c.32,21.62,11.63,35.05,33.34,38.31,19.59,2.9,36.48-4.19,51.39-15.93,6.16-4.86,9.33-7.38,13.34,2.18s12.42,13.31,22.91,13.4c14.33,0,25.78-6.16,36.51-14.54,2.35-1.88,3.72-5.4,7.53-5.14,13,21.34,28.8,25.49,51.16,13.57a78.67,78.67,0,0,0,21-16.85c3.9-4.25,6.89-9.07,1.46-14-5-4.5-9.25-1.51-13,2.56a53,53,0,0,1-22.9,15.87c-6.43,2-12.18,1.37-16.4-4.59-6.8-9.65-4.59-29.59,4.13-37.53,25.73-23.63,48.57-52,59.76-85.4a49.93,49.93,0,0,0,2.3-10.17,30.81,30.81,0,0,0-3.2-17.62m-108.65,21.83c3.57-6,8.72-14.3,16.57-10.69s3.19,12.26,1.22,18.28c-8.35,25.2-23.81,46.16-42,65.49,3.84-25.9,11-50.55,24.22-73.08m-359.31-6.25c3.89-6.25,9.09-14.76,17.44-10.52s2.9,13,.32,19.07c-8.72,20.9-23.11,38.17-39.39,54,3.43-22.41,9.77-43.43,21.63-62.56m-224.85,89.1c-6.6-.47-9-7.74-8.72-14.19,0-4.94,2.15-9.77,8.17-9.24,7.15.61,6.16,6.68,6.42,12.21-.11,4.41.82,11.71-5.87,11.22m128.16,53.42a23,23,0,0,1-21.77-6.57c-1.45-1.45-.49-3.37.29-5,5.38-10.78,10.73-21.59,16.92-34.06,7.94,11,13.11,20.34,14.22,31.22.75,7.29-1.89,12.84-9.66,14.41m289.41-53.45c-6.4-.32-8.93-7.56-8.72-14,0-5,2.12-9.59,7.93-9.48,7.18.18,6.69,6.08,7,11.63-.29,4.27.58,12.24-6.19,11.89m47.79,24.15c-.85-3.28-.62-7.18,2.32-8.72a16.25,16.25,0,0,0,9.3-13.92c.79-5.81,7.91-7.38,11.63-8,11.31-.18,15.43,5.81,10.84,13.08-6.86,11.1-19.12,14.53-30.43,19a2.41,2.41,0,0,1-3.34-.68,2.12,2.12,0,0,1-.32-.72m209-104.32c-7.18,27.7-24.45,49.41-43.2,70.43,4.53-27.64,11.51-54.39,27.5-77.82,2.91-4.33,7.76-9,13.66-6.13s3.23,8.9,2,13.52"/><path class="cls-4" d="M337.36,198.53c-11.62.67-9.41-7-9.47-13.55,0-18.57-.82-19.3-19.51-19.33a25.64,25.64,0,0,0-3.28,0c-6.19.67-10.38-.52-10.61-8.14,0-4.36-2.73-8.92-8-8.57s-7.9,4.79-7.73,9.94-1.6,7.06-6.86,6.83c-4.74-.29-9.39.7-9.71-6.6s-4.33-10.61-12.12-10.61q-61.51.31-123,0c-7.12,0-11.33,3.14-11.48,9.88-.14,5.61-1.92,7.56-7.53,7.39s-8.95-.58-9.12-7.27c-.18-4.77-2.36-10-8.32-9.53-5.46.29-8,5-7.82,10,.27,6.3-3.08,6.68-8.08,6.8-8.4.2-17.5-2.47-24.79,4.36v6.45c2.9,6.11,8.28,7.18,14.53,7.5,14.88.76,14.94.87,15,15.44,0,49.41.7,98.83-.32,148-.58,21.6,9.54,34.39,28,42.27a130.63,130.63,0,0,0,56.16,11.62h4.13c16.4-.49,29.65.88,46-.9A184.66,184.66,0,0,0,273,385.44c15.23-6.89,22.85-18.08,22.61-35.58-.64-51.95-.29-103.92,0-155.87,0-5.26-3.22-12.41,7.73-12.64,11.81-.26,7.65,7.53,8.23,13.05a96,96,0,0,1,0,10.73,7.48,7.48,0,0,0,6.62,8.23l.27,0a111.55,111.55,0,0,0,18.46,0,7,7,0,0,0,6.68-7.24c-.05-4-2.47-7.85-6.22-7.61m-130.45-33c10.87.37,21.77.4,32.61,0,6.57-.24,6.69,3.4,6.71,8.14s0,8.48-6.68,8c-6.13-.44-12.33,0-18.49,0H206.93c-5.29,0-9.82.55-9.82-7.36s3.08-9,9.8-8.77M189.46,278.26a210.83,210.83,0,0,0,57-7c5.4-1.54,11.19-3.61,9.33-10.67-2-7.76-8-6.6-14-4.8a196.49,196.49,0,0,1-35.32,5.82c-6.37.69-9.1-.64-9.21-7.71-.44-18.19-.59-18.19,18.16-16.16,17,1.95,33.78,4.71,49.42,12.09,5.81,2.71,13.28,5.29,13.05,12.82-.23,6.83-7.32,9.3-12.85,11.83-23.95,10.9-49.59,13.55-75.4,13.55-25.11.14-50-2.41-73.51-12.12-6.78-2.91-16.28-5-16-13.87s9.53-10.93,16.39-13.78a164.85,164.85,0,0,1,55.23-11.13c3.23-.15,8.55-2.91,9.07,3.9s-4.65,5.43-8.16,5.63A192.52,192.52,0,0,0,133,252.8c-5.21,1.42-11.17,2.5-11.08,9.71,0,6.71,5.81,7.53,10.58,8.89a211.09,211.09,0,0,0,56.83,6.86Zm-50.34,37.09c-7.79-1.33-7.65-6.22-7.12-11.62.72-7.74,6.22-3.9,9.82-3.55,10.76,1,21.48,3.08,32.27,3.4,8.72.29,6.19,5.81,6.65,10.32.56,5.58-2.47,6.86-8.19,5.81a307.81,307.81,0,0,1-33.43-4.36m8.72,30.12c0,5.58-4.77,2.9-7.41,2.26a105,105,0,0,1-33.55-11.88c-6.13-3.7-9.56-8.73-6.22-16.54A176.45,176.45,0,0,0,143,332.42c8.72,1.45,4.85,8.45,4.79,13.05Zm24.74-9.8c5.81.41,11.62,0,17.44,0,4.71,0,9.42.23,14.07,0,5.37-.35,9.76-1.1,9.82,6.92,0,7-2.3,9.36-9,9.5-11.16.21-22.32.41-33.51-.26-7.13-.43-6.52-4.71-6.69-9.5-.47-5.93,2.5-7.07,7.82-6.66Zm34.88-16.34c-3.78,0-10,3.46-10.38-6.16-.29-7.7,2.67-9.59,9.88-9.91,10.09-.47,20.09-2.5,30.18-3.46,3.16-.32,8.57-4.21,8.72,3.11.17,4.94,2.24,10.84-6.25,12.24a251.61,251.61,0,0,1-32.24,4.18Zm28.16,12.85a138,138,0,0,0,42-13.75c3.28,9-.93,13.93-7.24,17.79a95.54,95.54,0,0,1-31.48,11.28c-3.52.7-8.55,3.37-8.72-3.52-.38-4.65-2.3-10.52,5.38-11.8Zm37.79-30.52c-2.9,2.12-5.35,5.23-9.33,4.33-1.92-.43-1.51-2.9-1.57-4.62,0-4.27-.49-8.72,5-10.46,3.35-1.17,6.51-2.91,10.21-4.54,2.32,7.06.37,11.69-4.31,15.29ZM173.19,165.42c6.33,0,8.46,2.32,7.41,8.17,1,5.61-.7,8.34-7.21,8.17-5.81-.18-9.16-.94-9-8,.09-6.63,2.53-8.31,8.84-8.34m-32.5,0c6.54,0,8.2,2.67,7.27,8.34,1.1,5.81-1.11,8.05-7.39,8s-8.92-1.28-8.89-8.14,2.9-8.08,9-8.2m-34.51,16c5.53.23,9.71,0,9.48,7.61s5.81,8.72,12.18,8.72c14.82,0,29.65.35,44.47,0,6.81-.23,9.51,2.12,8.35,8.55-1,5.64,4.24,14.33-7.79,14.79-23.26.91-46.05,4.48-67.35,14.54-5.29,2.32-6.17.09-6.17-4.45V190.45c-.23-4.89-.52-9.33,6.83-9M99.53,289.13a2,2,0,0,1,2.24-1.8,2,2,0,0,1,1,.41c4.1,2.9,11.37,1.74,12.53,8.54a66.23,66.23,0,0,1,0,10.35,19.43,19.43,0,0,1-11.63-5.14,11.14,11.14,0,0,1-4.15-12.36m15.52,81.77c-4.48.52-7.09-2.24-10.06-4.07A11.39,11.39,0,0,1,99.35,354a2.35,2.35,0,0,1,4-1.57c4.22,3.08,12.3,1.78,12,10.06,0,2.79-.14,5.61-.29,8.4m52.32,13.26c-9.3-1.46-18.6-3.11-27.84-4.28-8.72-1-8.32-6.77-7.39-12.5,1.19-7.55,6.8-2.9,10.29-2.73,9.71.76,19.36,2.91,29.07,2.91,7.59.23,9.62,2.91,9.45,10.14-.21,8.72-5,7.3-9.91,6.83m69.76-5.46A221,221,0,0,1,207.92,384c-6.86.32-12.18,1.83-10.9-9.33.61-5.4,2.91-6.07,7.59-6.51,11.16-1,22.24-2.7,33.4-3.92,2.91-.32,8-3.23,7.85,3.22-.06,4.28,2.85,10.21-5.15,11.81Zm32.38-11.95c-2.91,1.86-7.06,6.69-10,1.95a9.05,9.05,0,0,1,2.19-12.6q.35-.24.72-.45c3.49-1.8,7.12-3.29,11.36-5.2,2.74,7.35.93,12.79-4.3,16.3m5.52-128.68A170.81,170.81,0,0,0,206,221.2c-11.62-.38-8.05-8.14-8.72-14.27-.9-7.12,2-9.39,9.16-9.19,14.53.47,29.07,0,43.6.21,7.27,0,12.36-2.33,12.5-10,0-8.46,6.16-6,10.76-6.37,6.39-.55,5.61,3.95,5.61,7.85-.24,15.73-.24,31.45-.24,49"/><path class="cls-4" d="M542.56,260.7A15.76,15.76,0,0,1,527.37,277h-1.06c-9.22,0-14.77-4.82-14.92-13.2-.14-9.27,6.28-15.17,16.86-15.26,8.29-.05,14.1,2.88,14.31,12.15"/></g></g></g><rect class="cls-5" width="1200" height="550"/><g id="Layer_2-2" data-name="Layer 2"><g class="cls-6"><g class="cls-7"><path class="cls-4" d="M1146.6,215.56c-13.14-20.34-24.07-17.61-41.95.18a95.73,95.73,0,0,0-19.42,28.37,284.54,284.54,0,0,0-24.85,88.69c-.9,8.48-.47,16.48-8.72,22.58-7.24,5.26-13.14,12.3-22.12,15.15-6.4,2-12.21,1.8-16.66-3.93-7.18-9.24-5.4-29.74,3.35-37.44A214.92,214.92,0,0,0,1066,265.88c6.83-13.17,12.15-26.92,12.62-41.92.49-16.27-10.35-24.41-26.17-20A40.49,40.49,0,0,0,1035,214.46a100.83,100.83,0,0,0-22.44,32.9c-13.28,30.9-22.32,62.85-24.21,96.54-.15,2.73.55,5.61-2.27,7.85-10.49,8.34-21,16.68-34.88,19.15-7.82,1.4-15.93,2.24-23.25-1.77-3.14-1.71-7-4-6.54-7.85s5-3.28,7.87-4.1c12.65-3.57,25-7.58,34.42-17.44a29.06,29.06,0,0,0,5.81-30.95c-4.3-9.05-15.37-14.54-27.52-13.46a41.58,41.58,0,0,0-30.21,17.09c-2.21,2.91-4.18,5.81-6.16,8.86A9.23,9.23,0,0,1,895.07,325c-4.71-1.14-1.86-5.32-2-8.2a128.26,128.26,0,0,0-.37-17.09c-2.48-13.81-15.12-21.25-29.54-18.11-12.24,2.67-19.44,14.27-16.89,27.23a38.07,38.07,0,0,0,16,23.49c2.21,1.66,5.58,2.91,3.66,6.6-6.86,13.6-14.24,26.92-29.3,33.31-10.2,4.3-17.15.35-18.92-10.43-1.89-11.43,1.77-22,6-32.39,2.56-6.3,5.52-12.47,8.08-18.77,1.54-3.81,2.44-7.85-2.44-10.18a9.34,9.34,0,0,0-12.62,2.47c-3.84,4.94-5.43,10.84-7.59,16.57C803,336,796.38,352.33,784.44,365.82c-4.22,4.73-9.36,8.72-16.17,6.3s-7.82-8.72-8.14-15c-.9-18.29,7.36-33.2,17.77-47.38,2.9-4.1,8.51-8.41,1.39-13.43-6-4.28-11.8-3.09-16.16,2.61C753,312.13,744,326.08,740.48,342.5a18.41,18.41,0,0,1-8.72,12.88c-5.52,3.43-10.93,7.09-16.62,10.2-3.9,2.13-8.32,6.63-12.71,2.71-3.6-3.23-1-8.26.5-12.15,5.2-13.72,10.87-27.3,16.22-41,2-5,4.1-10.43-.5-15.08a16.39,16.39,0,0,0-18.1-3.61,49.87,49.87,0,0,0-9.68,4.8,116.65,116.65,0,0,0-35.06,33.34c-1.83,2.59-2.91,5.81-6.72,7.64.15-14.53,4.07-26.16,15.79-35.37a216.53,216.53,0,0,0,27.93-28.55c13.61-15.64,24.86-32.79,29.07-53.42,3.46-17.3-7-28.64-24.74-27.65a36.62,36.62,0,0,0-23.89,11.48,109.33,109.33,0,0,0-26.86,44.94,355.91,355.91,0,0,0-19.59,97.73c-.52,11-6.83,14.8-17.44,19.27,4.88-13,1-22-5.2-30.46-4.22-5.81-8.52-11.63-12.94-17.27-3.31-4.24-5.09-8.51-2.62-13.89s2.91-11.63-3.8-14.54-12.62,0-16.66,6a70.68,70.68,0,0,0-4,7.62c-8.72,16.59-17,33.28-26,49.67-5.49,10.12-17.76,16.89-24.8,13.37-10.9-5.4-5.81-15.49-5.81-23.95a16.65,16.65,0,0,1,1-4.18,203,203,0,0,1,12-34.65c4.19-8.49,1.69-11.89-7.67-12.24a12.55,12.55,0,0,0-12.38,7.21c-2.74,5-5.15,10.26-7.42,15.52-3.22,7.41-10.29,7-15.81,5.81s-1.89-6.57-1.66-10a47.48,47.48,0,0,0-.81-16c-3.81-13.55-15.09-20.17-29.36-17.18-13.66,2.91-21,16.8-15.67,32.24A34.91,34.91,0,0,0,438.41,327c11.63,11.63,11.63,11.63,1.95,25.64a71.23,71.23,0,0,1-11.83,13.52c-6.2,5.43-13.55,10.43-22.13,6.1-7.76-3.9-7.2-11.86-6.54-19a73.21,73.21,0,0,1,3.43-16.57c2.91-8.54,6.92-16.71,10.35-25.08,1.69-4.1,3.2-8.49-2.12-11.2a9.52,9.52,0,0,0-13.08,3.09l-.2.34a66.88,66.88,0,0,0-6.92,15.7c-6,16.16-12.5,32.15-24,45.49-4.36,5.06-9.59,9.57-16.89,7s-7.91-9.59-8.08-16.16c-.52-18.23,7.9-33.11,18.49-47.12,2.73-3.67,6.94-7.36,1.42-11.89s-11.16-4.83-15.44.52c-15.58,19.42-28.28,40.2-25.11,66.54,1.54,12,6.89,21.51,18.72,25.9a31.57,31.57,0,0,0,32.5-6.16c4.33-3.64,8.72-7.21,12.76-10.59,12.09,22.42,30.14,25.82,52,8.73,2-1.55,3.81-3.29,5.67-5a83,83,0,0,0,21.42-29.51c4-9.79,12.07-7.7,18.38-6.89,7.23.93,2.47,7.24,2.06,11.28-.18,1.72-.23,3.55-.29,5.35-1.11,27.15,19.15,40.17,46.22,28.11a69.24,69.24,0,0,0,7.24-4,7.62,7.62,0,0,1,9.09-.64c23.26,13.63,47.15,11.07,71.45,3.84,2.91-.85,5.26-3.38,9-.67,10.87,8,14.94,6.8,19.85-6.25,7.15-19,19.94-33.93,34.71-47.41,2.35-2.15,4.68-5.61,9.68-3.84-.47,1.8-.73,3.49-1.31,5.06-4.42,12.09-10.52,23.75-11.63,36.8-1.39,16.36,6.89,23.25,23.26,20.11a99.78,99.78,0,0,0,32.12-12.82c3.92-2.41,6.1-2.9,9.33,1.81,12,17.79,32.41,19.62,48.28,4.88,3.63-3.34,6.8-7.15,10.29-10.87C814.72,393.52,828.59,398,848.94,386a74,74,0,0,0,11.22-8.46A90.3,90.3,0,0,0,882,348.43c2.56-5.34,5.4-9.62,12.12-7.82s2.91,7.21,3.08,10.85c.32,21.62,11.63,35.05,33.34,38.31,19.59,2.91,36.48-4.19,51.39-15.93,6.17-4.85,9.33-7.38,13.35,2.18s12.41,13.31,22.9,13.4c14.33,0,25.79-6.16,36.51-14.53,2.36-1.89,3.72-5.41,7.53-5.15,13,21.34,28.81,25.49,51.16,13.58a79.11,79.11,0,0,0,21-16.86c3.89-4.25,6.88-9.07,1.45-14-5-4.51-9.24-1.52-13,2.55A53,53,0,0,1,1100,370.87c-6.42,2-12.18,1.37-16.39-4.59-6.81-9.65-4.6-29.59,4.12-37.53,25.73-23.63,48.58-52,59.77-85.4a50.58,50.58,0,0,0,2.29-10.17,30.8,30.8,0,0,0-3.19-17.62m-108.66,21.83c3.57-6,8.72-14.3,16.57-10.69s3.2,12.26,1.22,18.28c-8.34,25.2-23.81,46.16-42,65.49,3.83-25.9,11-50.55,24.21-73.08m-359.31-6.25c3.89-6.25,9.1-14.76,17.44-10.52s2.91,13,.32,19.07c-8.72,20.9-23.11,38.17-39.39,54,3.43-22.41,9.77-43.43,21.63-62.56m-224.84,89.1c-6.6-.47-9-7.73-8.72-14.19,0-4.94,2.15-9.76,8.16-9.24,7.15.61,6.17,6.68,6.43,12.21-.12,4.42.81,11.71-5.87,11.22M582,373.67a23,23,0,0,1-21.77-6.57c-1.46-1.46-.5-3.38.29-5,5.37-10.79,10.72-21.6,16.91-34.07,7.94,11,13.11,20.35,14.22,31.22.75,7.29-1.89,12.85-9.65,14.42m289.4-53.46c-6.4-.32-8.92-7.56-8.72-14,0-5,2.12-9.59,7.93-9.48,7.18.18,6.69,6.08,7,11.63-.29,4.27.58,12.24-6.19,11.89m47.79,24.15c-.85-3.28-.61-7.18,2.32-8.72a16.24,16.24,0,0,0,9.31-13.92c.78-5.81,7.9-7.38,11.62-8,11.31-.18,15.44,5.81,10.84,13.08-6.86,11.1-19.12,14.53-30.43,19a2.4,2.4,0,0,1-3.34-.68,2.12,2.12,0,0,1-.32-.72m209-104.32c-7.18,27.7-24.45,49.41-43.2,70.43,4.54-27.64,11.51-54.39,27.5-77.81,2.91-4.34,7.76-9,13.66-6.14s3.23,8.9,2,13.52"/><path class="cls-4" d="M337.43,198.56c-11.63.67-9.42-7-9.48-13.55,0-18.57-.81-19.3-19.51-19.33a25.64,25.64,0,0,0-3.28,0c-6.19.67-10.38-.52-10.61-8.14,0-4.36-2.73-8.92-8-8.57s-7.91,4.79-7.74,9.94-1.6,7.06-6.86,6.83c-4.73-.29-9.39.7-9.71-6.6s-4.33-10.61-12.12-10.61q-61.5.32-123,0c-7.12,0-11.34,3.14-11.49,9.89-.14,5.61-1.91,7.55-7.52,7.38s-9-.58-9.13-7.27c-.18-4.77-2.36-10-8.31-9.53-5.47.29-8,5-7.82,10,.26,6.31-3.09,6.68-8.08,6.8-8.41.2-17.5-2.47-24.8,4.36v6.45c2.91,6.11,8.28,7.18,14.53,7.5,14.89.76,15,.87,15,15.44,0,49.41.7,98.83-.32,148-.58,21.6,9.54,34.39,28,42.27a130.61,130.61,0,0,0,56.16,11.63h4.12c16.4-.5,29.65.87,46-.91a184.6,184.6,0,0,0,59.5-15c15.23-6.89,22.85-18.08,22.61-35.58-.63-51.95-.29-103.92,0-155.87,0-5.26-3.22-12.41,7.74-12.64,11.8-.26,7.64,7.53,8.22,13.05a91.45,91.45,0,0,1,0,10.73,7.48,7.48,0,0,0,6.63,8.23l.26,0a111.55,111.55,0,0,0,18.46,0,7,7,0,0,0,6.69-7.24c-.06-4-2.47-7.84-6.22-7.61M207,165.54c10.87.38,21.77.4,32.61,0,6.57-.24,6.69,3.4,6.72,8.14s0,8.48-6.69,8c-6.13-.44-12.32,0-18.49,0H207c-5.29,0-9.83.55-9.83-7.35s3.08-9,9.8-8.78M189.53,278.29a210.81,210.81,0,0,0,57-7c5.41-1.54,11.19-3.61,9.33-10.67-2-7.76-8-6.6-14-4.8a196.34,196.34,0,0,1-35.32,5.82c-6.36.69-9.1-.64-9.21-7.71-.44-18.19-.58-18.19,18.17-16.16,17,1.95,33.77,4.71,49.41,12.09,5.82,2.71,13.29,5.29,13.05,12.82-.23,6.83-7.32,9.3-12.84,11.83-24,10.9-49.6,13.55-75.41,13.55-25.11.14-50-2.41-73.51-12.12-6.77-2.91-16.28-5-16-13.87s9.54-10.93,16.4-13.78a164.75,164.75,0,0,1,55.23-11.13c3.22-.14,8.54-2.91,9.07,3.9s-4.66,5.43-8.17,5.64A191.94,191.94,0,0,0,133,252.83c-5.2,1.42-11.16,2.5-11.08,9.71,0,6.71,5.82,7.53,10.58,8.89a211.18,211.18,0,0,0,56.83,6.86Zm-50.35,37.09c-7.79-1.33-7.64-6.22-7.12-11.62.73-7.74,6.22-3.9,9.82-3.55,10.76,1,21.49,3.08,32.27,3.4,8.72.29,6.19,5.81,6.66,10.32.55,5.58-2.47,6.86-8.2,5.81a308.13,308.13,0,0,1-33.43-4.36m8.72,30.12c0,5.58-4.77,2.9-7.41,2.27a105.24,105.24,0,0,1-33.55-11.89c-6.13-3.7-9.56-8.72-6.22-16.54A176.59,176.59,0,0,0,143,332.45c8.72,1.45,4.85,8.46,4.79,13.05Zm24.74-9.8c5.81.41,11.63,0,17.44,0,4.71,0,9.42.23,14.07,0,5.38-.35,9.77-1.1,9.82,6.92,0,7-2.29,9.36-9,9.51-11.16.2-22.32.4-33.51-.27-7.12-.43-6.51-4.7-6.69-9.5-.46-5.93,2.5-7.06,7.82-6.66Zm34.88-16.33c-3.78,0-10,3.45-10.38-6.17-.29-7.7,2.68-9.59,9.89-9.91,10.08-.46,20.08-2.5,30.17-3.46,3.17-.32,8.57-4.21,8.72,3.11.17,4.94,2.24,10.84-6.25,12.24a251.63,251.63,0,0,1-32.24,4.19Zm28.17,12.84a137.87,137.87,0,0,0,42-13.75c3.29,9-.93,13.93-7.24,17.79a95.32,95.32,0,0,1-31.48,11.28c-3.51.7-8.54,3.37-8.72-3.51-.38-4.66-2.29-10.53,5.38-11.81Zm37.79-30.52c-2.91,2.12-5.35,5.23-9.33,4.33-1.92-.43-1.52-2.9-1.57-4.62,0-4.27-.5-8.72,5-10.46,3.34-1.17,6.51-2.91,10.2-4.54,2.32,7.07.38,11.69-4.3,15.29ZM173.25,165.45c6.34,0,8.46,2.33,7.41,8.17,1,5.61-.7,8.34-7.21,8.17-5.81-.18-9.15-.93-9-8,.09-6.62,2.53-8.31,8.84-8.34m-32.5,0c6.54,0,8.2,2.67,7.27,8.34,1.1,5.82-1.11,8.05-7.39,8s-8.92-1.28-8.89-8.14,2.91-8.08,9-8.2m-34.5,16c5.52.23,9.71,0,9.47,7.61s5.82,8.72,12.18,8.72c14.83,0,29.65.35,44.48,0,6.8-.23,9.5,2.13,8.34,8.55-1,5.64,4.24,14.33-7.79,14.8-23.26.9-46,4.47-67.35,14.53-5.29,2.33-6.16.09-6.16-4.45V190.48c-.24-4.89-.53-9.33,6.83-9M99.59,289.16a2,2,0,0,1,2.25-1.8,2.13,2.13,0,0,1,1,.41c4.09,2.91,11.36,1.74,12.52,8.54a66.23,66.23,0,0,1,0,10.35,19.38,19.38,0,0,1-11.62-5.14,11.13,11.13,0,0,1-4.16-12.36m15.52,81.77c-4.47.53-7.09-2.24-10-4.07A11.38,11.38,0,0,1,99.42,354a2.35,2.35,0,0,1,2.45-2.25,2.4,2.4,0,0,1,1.56.68c4.21,3.09,12.29,1.78,12,10.06,0,2.79-.14,5.61-.29,8.4m52.33,13.26c-9.31-1.46-18.61-3.11-27.85-4.28-8.72-1-8.32-6.77-7.39-12.49,1.2-7.56,6.81-2.91,10.29-2.74,9.71.76,19.36,2.91,29.07,2.91,7.59.23,9.62,2.91,9.45,10.14-.2,8.73-5,7.3-9.91,6.84m69.76-5.47A221.07,221.07,0,0,1,208,384c-6.86.32-12.18,1.84-10.91-9.33.62-5.4,2.91-6.07,7.59-6.51,11.16-1,22.24-2.7,33.4-3.92,2.91-.32,8-3.23,7.85,3.22-.06,4.28,2.85,10.21-5.15,11.81Zm32.38-12c-2.9,1.86-7.06,6.69-10,2a9,9,0,0,1,2.19-12.59,6.76,6.76,0,0,1,.72-.46c3.49-1.8,7.12-3.28,11.37-5.2,2.73,7.35.93,12.79-4.31,16.3m5.53-128.68a170.84,170.84,0,0,0-72.67-17.24c-11.63-.38-8.06-8.14-8.72-14.27-.91-7.12,2-9.39,9.15-9.19,14.54.47,29.07,0,43.6.21,7.27,0,12.36-2.33,12.5-10,0-8.46,6.17-6,10.76-6.37,6.39-.55,5.61,4,5.61,7.85-.23,15.73-.23,31.45-.23,49"/><path class="cls-4" d="M542.62,260.74A15.76,15.76,0,0,1,527.43,277h-1.06c-9.22,0-14.77-4.82-14.91-13.19-.15-9.28,6.28-15.18,16.86-15.27,8.28-.05,14.09,2.88,14.3,12.16"/></g></g></g></svg>