<?xml version="1.0" encoding="UTF-8" standalone="no"?>
<!-- Created with Inkscape (http://www.inkscape.org/) -->

<svg
   width="210mm"
   height="297mm"
   viewBox="0 0 210 297"
   version="1.1"
   id="svg5"
   inkscape:version="1.1.1 (3bf5ae0d25, 2021-09-20)"
   sodipodi:docname="drawing.svg"
   inkscape:export-filename="/home/peter/documents/5_semester/wishwell/assets/img/wish.png"
   inkscape:export-xdpi="213.558"
   inkscape:export-ydpi="213.558"
   xmlns:inkscape="http://www.inkscape.org/namespaces/inkscape"
   xmlns:sodipodi="http://sodipodi.sourceforge.net/DTD/sodipodi-0.dtd"
   xmlns="http://www.w3.org/2000/svg"
   xmlns:svg="http://www.w3.org/2000/svg">
  <sodipodi:namedview
     id="namedview7"
     pagecolor="#505050"
     bordercolor="#eeeeee"
     borderopacity="1"
     inkscape:pageshadow="0"
     inkscape:pageopacity="0"
     inkscape:pagecheckerboard="0"
     inkscape:document-units="mm"
     showgrid="false"
     inkscape:zoom="1.2525126"
     inkscape:cx="466.26278"
     inkscape:cy="564.86458"
     inkscape:window-width="1896"
     inkscape:window-height="1026"
     inkscape:window-x="9"
     inkscape:window-y="39"
     inkscape:window-maximized="1"
     inkscape:current-layer="layer1"
     inkscape:snap-global="false" />
  <defs
     id="defs2" />
  <g
     inkscape:label="Layer 1"
     inkscape:groupmode="layer"
     id="layer1">
    <path
       style="fill:#35a761;stroke-width:0.264583;fill-opacity:1"
       d="m 40.04345,156.03924 c -4.260348,-0.28299 -7.54604,-1.33379 -9.133113,-2.92087 l -0.774375,-0.77437 -0.06894,-11.42567 -0.06894,-11.42568 -1.795863,-0.13229 c -1.177298,-0.0867 -1.878365,-0.26593 -2.035386,-0.52029 -0.436907,-0.70774 0.231108,-1.06721 1.983255,-1.06721 1.688665,0 1.980285,-0.1813 1.980285,-1.23116 0,-0.21678 0.164867,-0.559 0.366371,-0.76051 0.312106,-0.3121 0.426099,-0.29951 0.769627,0.0851 0.22179,0.24827 0.443877,0.74907 0.493525,1.11287 0.07323,0.5366 0.259828,0.67765 0.988565,0.74723 0.938162,0.0896 1.339384,-0.23723 1.346611,-1.09686 0.01006,-1.19648 0.30014,-1.23787 8.675396,-1.23787 7.204457,0 7.952554,0.0416 8.32915,0.46302 0.227568,0.25466 0.45438,0.76068 0.504028,1.12448 0.07323,0.5366 0.259828,0.67765 0.988567,0.74723 0.93816,0.0896 1.339382,-0.23723 1.34661,-1.09686 0.0021,-0.26505 0.168918,-0.64678 0.370422,-0.84829 0.312105,-0.3121 0.426098,-0.29951 0.769626,0.0851 0.221792,0.24827 0.443878,0.74907 0.493524,1.11287 0.08445,0.6188 0.20972,0.66999 1.942354,0.79375 l 1.852083,0.13229 0.132292,1.85067 c 0.129411,1.81035 0.149514,1.85362 0.922811,1.98641 0.859364,0.14757 1.236689,0.96477 0.624576,1.35269 -0.442328,0.28031 -2.361253,0.2974 -2.789995,0.0248 -0.176794,-0.11239 -0.352022,-0.95754 -0.396875,-1.91418 l -0.08031,-1.71293 -1.124479,-0.0814 -1.124479,-0.0814 v 11.38309 11.38309 l -0.786627,0.89592 c -2.021496,2.30236 -7.81964,3.50425 -14.700291,3.04721 z m 1.884518,-1.94034 c 0.09131,-0.3638 0.09577,-0.94135 0.0099,-1.28344 -0.14454,-0.57589 -0.328007,-0.63477 -2.476079,-0.79468 -1.275985,-0.095 -2.654989,-0.24714 -3.064454,-0.33813 -0.735567,-0.16345 -0.743488,-0.15174 -0.661458,0.97771 0.0747,1.02849 0.164992,1.16425 0.900273,1.3535 0.664154,0.17095 3.220916,0.55075 4.800105,0.71303 0.179129,0.0184 0.400396,-0.26419 0.491704,-0.62799 z m 5.99663,0.0919 c 1.540492,-0.23477 1.808278,-0.35735 1.94166,-0.88878 0.0851,-0.33906 0.110099,-0.83424 0.05556,-1.10041 -0.10748,-0.52455 -0.06114,-0.52281 -4.048743,-0.15175 l -2.116667,0.19697 -0.08445,1.0314 c -0.127917,1.56218 -0.07893,1.57269 4.252644,0.91257 z m -13.922569,-2.69166 c -0.205251,-0.81778 -2.092522,-1.70784 -2.241446,-1.05709 -0.180558,0.78898 0.23945,1.63173 1.080004,2.16704 0.841349,0.53581 0.867108,0.53685 1.093006,0.0439 0.127242,-0.27763 0.158039,-0.79688 0.06844,-1.15389 z m 18.716204,1.12404 c 0.907955,-0.71419 1.294377,-1.45959 1.090187,-2.10294 -0.161883,-0.51004 -0.175728,-0.50987 -1.205283,0.0154 -0.948821,0.48406 -1.041519,0.62506 -1.041519,1.5843 0,1.19946 0.174841,1.27554 1.156615,0.50327 z m -7.508005,-2.06797 c 0.709647,-0.19746 0.933558,-0.76357 0.688385,-1.74042 -0.149302,-0.59486 -0.239133,-0.61222 -3.198431,-0.61814 l -3.044814,-0.006 v 1.15066 c 0,1.05215 0.06229,1.16009 0.727604,1.26088 1.185318,0.17956 4.115699,0.15109 4.827256,-0.0469 z m -7.188114,-0.91203 c 0.233374,-1.21182 -0.156188,-1.66389 -1.734329,-2.01264 -0.839965,-0.18562 -2.211819,-0.61353 -3.048563,-0.95092 l -1.521355,-0.61343 v 0.66032 c 0,1.45479 0.925393,2.18802 3.836459,3.03981 1.874161,0.54838 2.342969,0.52499 2.467788,-0.12314 z m 12.44867,-0.0477 c 1.547247,-0.48878 2.293275,-0.88307 2.791782,-1.47551 0.719296,-0.85484 0.77116,-1.01701 0.527942,-1.65083 -0.129612,-0.33775 -0.351216,-0.30491 -1.48414,0.21998 -0.732478,0.33936 -2.092666,0.76826 -3.022639,0.95311 l -1.690861,0.33609 v 1.14209 c 0,1.36959 0.03038,1.3746 2.877916,0.47507 z m -8.542816,-3.43403 c 0.09131,-0.3638 0.09577,-0.94135 0.0099,-1.28344 -0.14454,-0.57589 -0.328007,-0.63477 -2.476079,-0.79467 -1.275985,-0.095 -2.654989,-0.24715 -3.064454,-0.33814 -0.735567,-0.16345 -0.743488,-0.15174 -0.661458,0.97771 0.0747,1.02849 0.164992,1.16425 0.900273,1.3535 0.664154,0.17096 3.220916,0.55075 4.800105,0.71303 0.179129,0.0184 0.400396,-0.26419 0.491704,-0.62799 z m 6.130522,0.0885 c 1.727737,-0.29382 2.123572,-0.71566 1.863329,-1.98577 -0.10748,-0.52455 -0.06114,-0.52281 -4.048743,-0.15175 l -2.116667,0.19697 -0.08445,1.0314 c -0.04924,0.60139 0.04754,1.11298 0.232146,1.22707 0.345389,0.21347 1.589446,0.11826 4.15439,-0.31792 z m -14.053169,-2.67512 c -0.107697,-0.4291 -0.505711,-0.77193 -1.223537,-1.0539 l -1.063917,-0.41792 v 0.65757 c 0,0.92144 0.421638,1.60698 1.263423,2.05421 0.657154,0.34913 0.741425,0.33936 0.952303,-0.11048 0.127242,-0.27142 0.15952,-0.77969 0.07173,-1.12948 z m 18.712912,1.11092 c 0.907955,-0.71419 1.294377,-1.45959 1.090187,-2.10294 -0.161883,-0.51004 -0.175728,-0.50987 -1.205283,0.0154 -0.948821,0.48405 -1.041519,0.62505 -1.041519,1.58429 0,1.19946 0.174841,1.27554 1.156615,0.50327 z m -6.486841,-2.10698 c 2.697966,-0.3383 6.073753,-1.37634 6.860936,-2.10971 0.322276,-0.30024 0.585957,-0.8339 0.585957,-1.1859 0,-1.27534 -3.786413,-2.74313 -8.14842,-3.1587 l -1.930711,-0.18394 0.07863,1.80319 0.07863,1.80319 1.322917,-0.0706 c 0.727604,-0.0388 2.198955,-0.25818 3.269669,-0.48741 2.042395,-0.43727 2.54891,-0.31259 2.376075,0.58487 -0.360976,1.8744 -14.343818,2.03115 -15.881766,0.17803 -0.271562,-0.32721 -0.226987,-0.48134 0.251192,-0.86855 0.581966,-0.47124 3.220081,-1.0561 4.763758,-1.0561 1.718812,0 2.5193,-0.6397 1.94158,-1.55158 -0.535339,-0.84499 -7.755662,0.76397 -9.33129,2.07936 -0.790921,0.66029 -0.840115,0.78526 -0.555242,1.41049 0.967042,2.12242 8.314611,3.56616 14.31809,2.81339 z m 7.653546,-9.83608 -0.07436,-3.24996 -1.106646,-0.0805 c -1.077931,-0.0784 -1.108825,-0.0578 -1.190625,0.79375 l -0.08398,0.87424 -3.902604,0.0732 -3.902604,0.0732 v 1.56421 1.56422 l 1.124479,0.13909 c 0.618464,0.0765 1.838854,0.21264 2.711979,0.30254 1.617163,0.16651 5.350383,1.27631 5.809343,1.72699 0.511492,0.50227 0.688168,-0.5839 0.615019,-3.78103 z m -20.475078,3.24425 c 1.520273,-0.65167 4.787626,-1.33483 6.384039,-1.33483 1.800764,0 2.243514,-0.32889 2.238667,-1.66296 -0.0022,-0.61334 -0.09638,-1.26047 -0.209215,-1.43807 -0.141518,-0.22273 -1.350223,-0.34585 -3.896289,-0.39688 l -3.691126,-0.074 -0.135824,-0.79375 c -0.12303,-0.71898 -0.241627,-0.80141 -1.259034,-0.87511 l -1.123211,-0.0814 v 3.58709 c 0,1.99882 0.107439,3.58709 0.242649,3.58709 0.133456,0 0.785661,-0.23276 1.449344,-0.51725 z m 4.61301,-6.97816 c 0.05052,-0.26617 0.01952,-0.77218 -0.0689,-1.12448 -0.136401,-0.54346 -0.32038,-0.64053 -1.214056,-0.64053 h -1.053296 v 1.20584 1.20584 l 1.122196,-0.0814 c 0.838673,-0.0608 1.145405,-0.20363 1.214056,-0.56531 z m 3.96875,0 c 0.05052,-0.26617 0.01952,-0.77218 -0.0689,-1.12448 -0.136401,-0.54346 -0.32038,-0.64053 -1.214056,-0.64053 h -1.053296 v 1.20584 1.20584 l 1.122196,-0.0814 c 0.838673,-0.0608 1.145405,-0.20363 1.214056,-0.56531 z m 7.936587,0 c 0.05103,-0.26617 0.02043,-0.77218 -0.06799,-1.12448 -0.158402,-0.63112 -0.205377,-0.64053 -3.198431,-0.64053 h -3.037668 v 1.19902 1.19903 l 3.105658,-0.0746 c 2.76523,-0.0664 3.115828,-0.12759 3.198431,-0.55849 z m 10.831008,25.60207 c -1.85111,-1.0044 -2.22195,-4.30562 -0.816343,-7.26712 1.595382,-3.36134 2.924363,-4.60602 3.796258,-3.55545 0.280066,0.33746 0.195241,0.601 -0.509143,1.58183 -1.304737,1.81682 -1.952998,3.5121 -1.983653,5.18751 -0.04504,2.46163 1.307079,3.35062 2.969093,1.95213 0.743898,-0.62595 2.933277,-4.51308 3.352049,-5.95139 0.475869,-1.63443 0.986263,-2.38125 1.627386,-2.38125 0.986779,0 1.000704,0.58166 0.06437,2.68919 -1.07361,2.41653 -1.349769,4.98434 -0.622477,5.78799 1.320183,1.45878 4.088043,-0.14716 5.554784,-3.22295 l 0.450691,-0.94511 -1.183703,-1.1837 c -2.249551,-2.24956 -1.77051,-4.97774 0.951606,-5.41948 1.96025,-0.3181 3.275047,1.49075 2.953604,4.06347 -0.171249,1.37063 -0.15912,1.40559 0.487657,1.40559 1.28144,0 1.91589,-0.44314 2.382046,-1.66374 0.550246,-1.44081 1.244193,-2.11168 2.064168,-1.99555 0.80933,0.11463 0.761,0.75296 -0.277021,3.65929 -0.843354,2.36129 -1.068139,4.67875 -0.508138,5.23875 0.471271,0.47127 1.820739,0.38304 2.742959,-0.17934 0.61014,-0.37207 1.31477,-1.47892 2.83976,-4.46078 1.11554,-2.18126 2.20233,-4.1104 2.41508,-4.28697 0.21276,-0.17657 0.66127,-0.28213 0.9967,-0.23458 0.55238,0.0783 0.60988,0.22366 0.60988,1.54167 0,1.33431 0.11733,1.62006 1.41234,3.43958 1.31988,1.85447 1.40469,2.06665 1.29561,3.24115 -0.0642,0.69122 -0.0328,1.25677 0.0699,1.25677 0.10264,0 0.58791,-0.27044 1.07838,-0.60097 0.97475,-0.65688 1.01761,-0.79954 1.54268,-5.13434 0.4119,-3.40047 1.699369,-8.30157 2.776618,-10.56995 1.968324,-4.14472 5.112494,-6.16824 7.124794,-4.58536 2.23644,1.75918 0.1708,6.63048 -5.00736,11.80864 -2.412323,2.41232 -2.545483,2.60516 -2.820673,4.08492 -0.29533,1.58806 -0.10486,2.33035 0.37702,1.46929 1.338823,-2.39234 5.222473,-5.73265 6.665133,-5.73265 1.81482,0 1.90312,0.91501 0.42878,4.44351 -1.91042,4.57217 -1.70298,5.40769 0.99153,3.99361 1.94822,-1.02244 2.64633,-1.683 2.86997,-2.71566 0.0985,-0.45467 0.57316,-1.61202 1.05488,-2.57189 1.50516,-2.9992 2.71373,-4.0322 3.54527,-3.03025 0.25645,0.309 0.16659,0.60584 -0.46056,1.52136 -1.21632,1.77559 -1.84332,3.15844 -2.04655,4.5137 -0.30858,2.05779 0.30488,3.37062 1.57505,3.37062 1.42426,0 2.71985,-1.78093 4.51051,-6.20016 0.89225,-2.20202 1.18616,-2.67872 1.69669,-2.75193 1.10869,-0.15898 1.17275,0.31199 0.32259,2.3717 -1.08203,2.62148 -1.40124,4.16892 -1.08641,5.26667 0.29598,1.03201 0.64629,1.30414 1.68592,1.30967 1.4556,0.008 2.73,-1.11383 4.13658,-3.64048 l 0.62962,-1.131 -1.01129,-0.83359 c -1.91472,-1.57827 -2.24058,-3.46752 -0.83972,-4.86838 1.19916,-1.19916 2.50034,-1.24453 3.61869,-0.12619 0.79771,0.79772 0.91213,1.30681 0.79252,3.52609 -0.063,1.16911 -0.0234,1.25677 0.56746,1.25677 0.75669,0 1.18437,-0.32855 2.15582,-1.65609 1.0429,-1.42519 2.5698,-2.13886 4.234,-1.97895 1.80709,0.17364 2.5486,1.01652 2.5486,2.89701 0,1.22455 -0.0955,1.43997 -1.03419,2.33293 -0.74171,0.70557 -1.60222,1.16012 -3.04271,1.60727 -1.10469,0.34291 -2.00852,0.7661 -2.00852,0.94041 0,0.17431 0.31371,0.56369 0.69714,0.8653 1.427,1.12248 5.34005,0.3958 6.81835,-1.26622 0.27721,-0.31166 0.64654,-0.56666 0.82073,-0.56666 0.20989,0 0.36922,-0.78082 0.47241,-2.31511 0.28541,-4.2434 2.01311,-9.67035 4.08561,-12.83353 1.79813,-2.74439 4.14737,-3.82945 5.65243,-2.61073 0.51416,0.41635 0.60806,0.72726 0.5793,1.91823 -0.0763,3.15789 -2.39919,7.4836 -6.11632,11.38966 l -2.27645,2.39216 -0.009,1.50336 c -0.0121,2.06057 0.56838,2.93721 1.94476,2.93721 1.09738,0 2.55966,-0.82574 3.77459,-2.1315 0.57396,-0.61685 0.75659,-1.17555 1.00723,-3.0813 1.12993,-8.59119 4.78633,-15.4247 8.25328,-15.4247 1.40095,0 2.07697,0.71636 2.07697,2.20093 0,3.40994 -2.8869,8.64051 -6.88135,12.46783 l -1.64053,1.57188 0.10534,1.65429 c 0.12937,2.03174 0.66035,2.74257 2.04867,2.74257 1.04455,0 1.76145,-0.39455 3.21343,-1.76849 0.62818,-0.59441 1.09545,-0.83861 1.38907,-0.72594 0.73692,0.28279 0.49983,1.19886 -0.57488,2.2212 -1.32886,1.26413 -2.75843,1.92737 -4.46695,2.07243 -1.2983,0.11023 -1.44046,0.0602 -2.3151,-0.81442 -0.51253,-0.51253 -0.93187,-1.12237 -0.93187,-1.3552 0,-0.59919 -0.19961,-0.53519 -1.27454,0.40861 -1.45722,1.27945 -3.07291,1.89567 -4.5885,1.75004 -1.41277,-0.13574 -2.12263,-0.62702 -2.61155,-1.80736 -0.38752,-0.93556 -0.77002,-0.9749 -1.53734,-0.15812 -1.38993,1.47952 -4.62881,2.45554 -6.64517,2.00249 -2.39757,-0.5387 -3.45123,-1.94663 -3.45123,-4.61163 v -1.48047 l -0.8599,0.0829 c -0.71815,0.0692 -0.96972,0.28657 -1.52612,1.3184 -1.72248,3.1943 -3.9541,4.98221 -6.21862,4.98221 -1.47965,0 -2.08428,-0.43623 -2.74445,-1.98006 l -0.33758,-0.78943 -0.7051,0.86131 c -1.04484,1.27631 -2.14974,1.9046 -3.35094,1.90545 -1.25561,7.9e-4 -2.66608,-0.78479 -3.0937,-1.7233 -0.16762,-0.36791 -0.37503,-0.63607 -0.4609,-0.59592 -0.0859,0.0402 -0.81176,0.40094 -1.61309,0.80175 -0.80133,0.40082 -2.13382,0.87073 -2.96108,1.04425 -1.35663,0.28455 -1.55718,0.26745 -2.04548,-0.17445 -0.75591,-0.68409 -0.70483,-2.34352 0.14504,-4.71238 1.03043,-2.87211 1.02497,-2.8393 0.47223,-2.8393 -0.86853,0 -3.920924,3.47753 -5.034193,5.73537 -1.085529,2.20158 -1.888289,2.76823 -2.445829,1.72646 -0.26775,-0.50031 -0.29419,-0.5002 -1.79787,0.007 -2.1439,0.72377 -5.81508,0.59107 -7.45241,-0.26939 l -1.15185,-0.60534 -1.34749,0.67148 c -2.363351,1.17771 -4.624528,0.71596 -5.382964,-1.09924 -0.288153,-0.68964 -0.345162,-1.39337 -0.212918,-2.62826 l 0.180602,-1.68644 h -1.202029 c -1.186117,0 -1.213543,0.0201 -2.071735,1.52136 -1.805877,3.15898 -3.943533,4.82864 -6.182077,4.82864 -1.356871,0 -2.354416,-0.735 -2.66227,-1.96159 -0.221609,-0.88296 -0.412591,-0.86201 -1.14256,0.12533 -1.262097,1.70707 -3.466431,2.31933 -5.120045,1.42209 z m 30.688343,-1.77137 c 0.5783,-0.4555 0.3822,-2.38186 -0.39688,-3.89869 -0.40018,-0.77915 -0.84666,-1.41628 -0.99218,-1.41586 -0.14552,4.2e-4 -0.78658,0.99463 -1.42458,2.20935 -1.29205,2.46003 -1.26357,2.82802 0.25932,3.35121 0.92293,0.31707 1.9671,0.21651 2.55432,-0.24601 z m 42.073342,-3.66617 c 2.03325,-0.87055 3.0326,-2.44849 2.12531,-3.35579 -0.85657,-0.85657 -3.12209,0.17493 -3.12209,1.4215 0,0.35324 -0.11056,0.64225 -0.24568,0.64225 -0.47268,0 -1.07723,0.83729 -1.07723,1.49194 0,0.73597 0.16766,0.72152 2.31969,-0.1999 z m -57.79374,-3.50003 c 0.288266,-1.21892 -0.10654,-2.28992 -0.84414,-2.28992 -1.126686,0 -1.525545,1.55459 -0.715896,2.79027 0.616937,0.94156 1.268449,0.7326 1.560036,-0.50035 z m 50.76115,0.0279 c 0.4087,-1.9671 -0.83074,-3.12605 -1.78524,-1.66931 -0.4642,0.70846 -0.33475,1.54536 0.36159,2.33785 0.62323,0.70928 1.19297,0.44173 1.42365,-0.66854 z m 17.70519,-1.32563 c 3.12453,-3.95152 5.06788,-8.2876 4.18898,-9.34661 -1.20687,-1.45419 -3.37738,1.51281 -4.87754,6.66739 -1.30074,4.46934 -1.15998,5.01704 0.68856,2.67922 z m 9.22442,-0.73785 c 2.93176,-3.95406 4.58608,-8.40237 3.30732,-8.89307 -1.28986,-0.49497 -2.97508,1.93115 -4.34653,6.25749 -0.95832,3.02307 -1.26413,4.7625 -0.8373,4.7625 0.16472,0 1.00915,-0.95712 1.87651,-2.12692 z m -51.87369,-2.04027 c 3.00179,-3.76595 4.33526,-7.46341 2.77211,-7.68654 -1.42595,-0.20354 -3.17224,2.51223 -4.449464,6.91967 -1.024489,3.5353 -0.66158,3.70122 1.677354,0.76687 z m -18.827922,-0.88109 c -0.694562,-0.40454 -0.616158,-1.95821 0.12502,-2.47735 0.70012,-0.49038 1.82661,-0.53722 2.26946,-0.0944 0.17462,0.17462 0.3175,0.70365 0.3175,1.17562 0,1.34843 -1.48305,2.11189 -2.71198,1.3961 z"
       id="path549" />
  </g>
</svg>
