<?xml version="1.0" encoding="UTF-8" standalone="no"?>
<svg
   id="Layer_1"
   data-name="Layer 1"
   viewBox="0 0 1024 1024"
   version="1.1"
   sodipodi:docname="adaptive-icon.svg"
   width="1024"
   height="1024"
   inkscape:version="1.1.1 (3bf5ae0d25, 2021-09-20)"
   xmlns:inkscape="http://www.inkscape.org/namespaces/inkscape"
   xmlns:sodipodi="http://sodipodi.sourceforge.net/DTD/sodipodi-0.dtd"
   xmlns="http://www.w3.org/2000/svg"
   xmlns:svg="http://www.w3.org/2000/svg">
  <sodipodi:namedview
     id="namedview1032"
     pagecolor="#505050"
     bordercolor="#eeeeee"
     borderopacity="1"
     inkscape:pageshadow="0"
     inkscape:pageopacity="0"
     inkscape:pagecheckerboard="0"
     showgrid="false"
     inkscape:snap-global="false"
     inkscape:zoom="0.45045445"
     inkscape:cx="719.27362"
     inkscape:cy="462.86589"
     inkscape:window-width="1896"
     inkscape:window-height="1026"
     inkscape:window-x="9"
     inkscape:window-y="39"
     inkscape:window-maximized="1"
     inkscape:current-layer="Layer_1" />
  <defs
     id="defs1005">
    <style
       id="style991">.cls-1{fill:none;}.cls-2{clip-path:url(#clip-path);}.cls-3{clip-path:url(#clip-path-2);}.cls-4{fill:#fff;}.cls-5{fill:#35a761;stroke:#000;stroke-miterlimit:10;}.cls-6{clip-path:url(#clip-path-3);}.cls-7{clip-path:url(#clip-path-4);}</style>
    <clipPath
       id="clip-path">
      <rect
         class="cls-1"
         x="49.939999"
         y="148.5"
         width="1100"
         height="252.94"
         id="rect993" />
    </clipPath>
    <clipPath
       id="clip-path-2">
      <rect
         class="cls-1"
         x="49.939999"
         y="148.5"
         width="1100"
         height="252.94"
         id="rect996" />
    </clipPath>
    <clipPath
       id="clip-path-3">
      <rect
         class="cls-1"
         x="50"
         y="148.53"
         width="1100"
         height="252.94"
         id="rect999" />
    </clipPath>
    <clipPath
       id="clip-path-4">
      <rect
         class="cls-1"
         x="50"
         y="148.53"
         width="1100"
         height="252.94"
         id="rect1002" />
    </clipPath>
  </defs>
  <rect
     class="cls-5"
     width="1022.7411"
     height="1022.7411"
     id="rect1018"
     x="0.62945557"
     y="0.62945557"
     style="stroke-width:1.25891" />
  <g
     id="Layer_2-2"
     data-name="Layer 2"
     transform="matrix(2.8654596,0,0,2.8654596,-25.885696,-276.00139)">
    <g
       class="cls-6"
       clip-path="url(#clip-path-3)"
       id="g1028">
      <g
         class="cls-7"
         clip-path="url(#clip-path-4)"
         id="g1026">
        <path
           class="cls-4"
           d="m 337.43,198.56 c -11.63,0.67 -9.42,-7 -9.48,-13.55 0,-18.57 -0.81,-19.3 -19.51,-19.33 a 25.64,25.64 0 0 0 -3.28,0 c -6.19,0.67 -10.38,-0.52 -10.61,-8.14 0,-4.36 -2.73,-8.92 -8,-8.57 -5.27,0.35 -7.91,4.79 -7.74,9.94 0.17,5.15 -1.6,7.06 -6.86,6.83 -4.73,-0.29 -9.39,0.7 -9.71,-6.6 -0.32,-7.3 -4.33,-10.61 -12.12,-10.61 q -61.5,0.32 -123,0 c -7.12,0 -11.34,3.14 -11.49,9.89 -0.14,5.61 -1.91,7.55 -7.52,7.38 -5.61,-0.17 -9,-0.58 -9.13,-7.27 -0.18,-4.77 -2.36,-10 -8.31,-9.53 -5.47,0.29 -8,5 -7.82,10 0.26,6.31 -3.09,6.68 -8.08,6.8 -8.41,0.2 -17.5,-2.47 -24.8,4.36 v 6.45 c 2.91,6.11 8.28,7.18 14.53,7.5 14.89,0.76 15,0.87 15,15.44 0,49.41 0.7,98.83 -0.32,148 -0.58,21.6 9.54,34.39 28,42.27 a 130.61,130.61 0 0 0 56.16,11.63 h 4.12 c 16.4,-0.5 29.65,0.87 46,-0.91 a 184.6,184.6 0 0 0 59.5,-15 c 15.23,-6.89 22.85,-18.08 22.61,-35.58 -0.63,-51.95 -0.29,-103.92 0,-155.87 0,-5.26 -3.22,-12.41 7.74,-12.64 11.8,-0.26 7.64,7.53 8.22,13.05 a 91.45,91.45 0 0 1 0,10.73 7.48,7.48 0 0 0 6.63,8.23 h 0.26 a 111.55,111.55 0 0 0 18.46,0 7,7 0 0 0 6.69,-7.24 c -0.06,-4 -2.47,-7.84 -6.22,-7.61 M 207,165.54 c 10.87,0.38 21.77,0.4 32.61,0 6.57,-0.24 6.69,3.4 6.72,8.14 0.03,4.74 0,8.48 -6.69,8 -6.13,-0.44 -12.32,0 -18.49,0 H 207 c -5.29,0 -9.83,0.55 -9.83,-7.35 0,-7.9 3.08,-9 9.8,-8.78 m -17.44,112.74 a 210.81,210.81 0 0 0 57,-7 c 5.41,-1.54 11.19,-3.61 9.33,-10.67 -2,-7.76 -8,-6.6 -14,-4.8 a 196.34,196.34 0 0 1 -35.32,5.82 c -6.36,0.69 -9.1,-0.64 -9.21,-7.71 -0.44,-18.19 -0.58,-18.19 18.17,-16.16 17,1.95 33.77,4.71 49.41,12.09 5.82,2.71 13.29,5.29 13.05,12.82 -0.23,6.83 -7.32,9.3 -12.84,11.83 -24,10.9 -49.6,13.55 -75.41,13.55 -25.11,0.14 -50,-2.41 -73.51,-12.12 -6.77,-2.91 -16.28,-5 -16,-13.87 0.28,-8.87 9.54,-10.93 16.4,-13.78 a 164.75,164.75 0 0 1 55.23,-11.13 c 3.22,-0.14 8.54,-2.91 9.07,3.9 0.53,6.81 -4.66,5.43 -8.17,5.64 A 191.94,191.94 0 0 0 133,252.83 c -5.2,1.42 -11.16,2.5 -11.08,9.71 0,6.71 5.82,7.53 10.58,8.89 a 211.18,211.18 0 0 0 56.83,6.86 z m -50.35,37.09 c -7.79,-1.33 -7.64,-6.22 -7.12,-11.62 0.73,-7.74 6.22,-3.9 9.82,-3.55 10.76,1 21.49,3.08 32.27,3.4 8.72,0.29 6.19,5.81 6.66,10.32 0.55,5.58 -2.47,6.86 -8.2,5.81 a 308.13,308.13 0 0 1 -33.43,-4.36 m 8.72,30.12 c 0,5.58 -4.77,2.9 -7.41,2.27 a 105.24,105.24 0 0 1 -33.55,-11.89 c -6.13,-3.7 -9.56,-8.72 -6.22,-16.54 A 176.59,176.59 0 0 0 143,332.45 c 8.72,1.45 4.85,8.46 4.79,13.05 z m 24.74,-9.8 c 5.81,0.41 11.63,0 17.44,0 4.71,0 9.42,0.23 14.07,0 5.38,-0.35 9.77,-1.1 9.82,6.92 0,7 -2.29,9.36 -9,9.51 -11.16,0.2 -22.32,0.4 -33.51,-0.27 -7.12,-0.43 -6.51,-4.7 -6.69,-9.5 -0.46,-5.93 2.5,-7.06 7.82,-6.66 z m 34.88,-16.33 c -3.78,0 -10,3.45 -10.38,-6.17 -0.29,-7.7 2.68,-9.59 9.89,-9.91 10.08,-0.46 20.08,-2.5 30.17,-3.46 3.17,-0.32 8.57,-4.21 8.72,3.11 0.17,4.94 2.24,10.84 -6.25,12.24 a 251.63,251.63 0 0 1 -32.24,4.19 z m 28.17,12.84 a 137.87,137.87 0 0 0 42,-13.75 c 3.29,9 -0.93,13.93 -7.24,17.79 a 95.32,95.32 0 0 1 -31.48,11.28 c -3.51,0.7 -8.54,3.37 -8.72,-3.51 -0.38,-4.66 -2.29,-10.53 5.38,-11.81 z m 37.79,-30.52 c -2.91,2.12 -5.35,5.23 -9.33,4.33 -1.92,-0.43 -1.52,-2.9 -1.57,-4.62 0,-4.27 -0.5,-8.72 5,-10.46 3.34,-1.17 6.51,-2.91 10.2,-4.54 2.32,7.07 0.38,11.69 -4.3,15.29 z M 173.25,165.45 c 6.34,0 8.46,2.33 7.41,8.17 1,5.61 -0.7,8.34 -7.21,8.17 -5.81,-0.18 -9.15,-0.93 -9,-8 0.09,-6.62 2.53,-8.31 8.84,-8.34 m -32.5,0 c 6.54,0 8.2,2.67 7.27,8.34 1.1,5.82 -1.11,8.05 -7.39,8 -6.28,-0.05 -8.92,-1.28 -8.89,-8.14 0.03,-6.86 2.91,-8.08 9,-8.2 m -34.5,16 c 5.52,0.23 9.71,0 9.47,7.61 -0.24,7.61 5.82,8.72 12.18,8.72 14.83,0 29.65,0.35 44.48,0 6.8,-0.23 9.5,2.13 8.34,8.55 -1,5.64 4.24,14.33 -7.79,14.8 -23.26,0.9 -46,4.47 -67.35,14.53 -5.29,2.33 -6.16,0.09 -6.16,-4.45 v -40.73 c -0.24,-4.89 -0.53,-9.33 6.83,-9 m -6.69,107.68 a 2,2 0 0 1 2.25,-1.8 2.13,2.13 0 0 1 1,0.41 c 4.09,2.91 11.36,1.74 12.52,8.54 a 66.23,66.23 0 0 1 0,10.35 19.38,19.38 0 0 1 -11.62,-5.14 11.13,11.13 0 0 1 -4.16,-12.36 m 15.52,81.77 c -4.47,0.53 -7.09,-2.24 -10,-4.07 A 11.38,11.38 0 0 1 99.42,354 a 2.35,2.35 0 0 1 2.45,-2.25 2.4,2.4 0 0 1 1.56,0.68 c 4.21,3.09 12.29,1.78 12,10.06 0,2.79 -0.14,5.61 -0.29,8.4 m 52.33,13.26 c -9.31,-1.46 -18.61,-3.11 -27.85,-4.28 -8.72,-1 -8.32,-6.77 -7.39,-12.49 1.2,-7.56 6.81,-2.91 10.29,-2.74 9.71,0.76 19.36,2.91 29.07,2.91 7.59,0.23 9.62,2.91 9.45,10.14 -0.2,8.73 -5,7.3 -9.91,6.84 m 69.76,-5.47 A 221.07,221.07 0 0 1 208,384 c -6.86,0.32 -12.18,1.84 -10.91,-9.33 0.62,-5.4 2.91,-6.07 7.59,-6.51 11.16,-1 22.24,-2.7 33.4,-3.92 2.91,-0.32 8,-3.23 7.85,3.22 -0.06,4.28 2.85,10.21 -5.15,11.81 z m 32.38,-12 c -2.9,1.86 -7.06,6.69 -10,2 a 9,9 0 0 1 2.19,-12.59 6.76,6.76 0 0 1 0.72,-0.46 c 3.49,-1.8 7.12,-3.28 11.37,-5.2 2.73,7.35 0.93,12.79 -4.31,16.3 m 5.53,-128.68 A 170.84,170.84 0 0 0 206.1,221.19 c -11.63,-0.38 -8.06,-8.14 -8.72,-14.27 -0.91,-7.12 2,-9.39 9.15,-9.19 14.54,0.47 29.07,0 43.6,0.21 7.27,0 12.36,-2.33 12.5,-10 0,-8.46 6.17,-6 10.76,-6.37 6.39,-0.55 5.61,4 5.61,7.85 -0.23,15.73 -0.23,31.45 -0.23,49"
           id="path1022" />
      </g>
    </g>
  </g>
</svg>
