<svg xmlns="http://www.w3.org/2000/svg" viewBox="0 0 378.4 86.99"><defs><style>.cls-1{fill:#329e5b;}.cls-2{fill:#36a05e;}</style></defs><g id="Layer_2" data-name="Layer 2"><g id="Layer_1-2" data-name="Layer 1"><path class="cls-1" d="M377.25,23.06c-4.52-7-8.28-6.06-14.43.06a32.92,32.92,0,0,0-6.68,9.76,97.86,97.86,0,0,0-8.55,30.51c-.31,2.92-.16,5.67-3,7.77-2.49,1.81-4.52,4.23-7.61,5.21-2.2.7-4.2.62-5.73-1.35-2.47-3.18-1.86-10.23,1.15-12.88a73.92,73.92,0,0,0,17.12-21.77c2.35-4.53,4.18-9.26,4.34-14.42.17-5.6-3.56-8.4-9-6.89a13.94,13.94,0,0,0-6,3.62A34.64,34.64,0,0,0,331.14,34c-4.57,10.63-7.68,21.62-8.33,33.21-.05.94.19,1.93-.78,2.7-3.61,2.87-7.24,5.74-12,6.59-2.69.48-5.48.77-8-.61-1.08-.59-2.39-1.37-2.25-2.7s1.73-1.13,2.71-1.41c4.35-1.23,8.61-2.61,11.84-6a10,10,0,0,0,2-10.65c-1.48-3.11-5.29-5-9.47-4.63a14.3,14.3,0,0,0-10.39,5.88c-.76,1-1.44,2-2.12,3.05a3.18,3.18,0,0,1-3.63,1.28c-1.62-.39-.64-1.83-.69-2.82a44.22,44.22,0,0,0-.13-5.88c-.85-4.75-5.2-7.31-10.16-6.23-4.21.92-6.69,4.91-5.81,9.37a13.09,13.09,0,0,0,5.51,8.08c.76.57,1.92,1,1.26,2.27-2.36,4.68-4.9,9.26-10.08,11.46-3.51,1.48-5.9.12-6.51-3.59-.65-3.93.61-7.57,2.05-11.14.88-2.17,1.9-4.29,2.78-6.46.53-1.31.84-2.7-.84-3.5a3.21,3.21,0,0,0-4.34.85c-1.32,1.7-1.87,3.73-2.61,5.7-2.11,5.68-4.38,11.29-8.49,15.93-1.45,1.63-3.22,3-5.56,2.17s-2.69-3-2.8-5.17c-.31-6.29,2.53-11.42,6.11-16.3,1-1.41,2.93-2.89.48-4.62-2.08-1.47-4.06-1.06-5.56.9-3.49,4.55-6.58,9.35-7.79,15a6.35,6.35,0,0,1-3,4.43c-1.9,1.18-3.76,2.44-5.72,3.51-1.34.73-2.86,2.28-4.37.93-1.24-1.11-.34-2.84.17-4.18,1.79-4.72,3.74-9.39,5.58-14.11.67-1.73,1.41-3.59-.17-5.19a5.65,5.65,0,0,0-6.23-1.24,17.21,17.21,0,0,0-3.33,1.65A40.21,40.21,0,0,0,208.41,64c-.63.89-1,2-2.31,2.63.05-5,1.4-9,5.43-12.17a74.36,74.36,0,0,0,9.61-9.82c4.68-5.38,8.55-11.28,10-18.38,1.19-5.95-2.41-9.85-8.51-9.51a12.59,12.59,0,0,0-8.22,3.95,37.57,37.57,0,0,0-9.24,15.46,122.45,122.45,0,0,0-6.74,33.62c-.18,3.77-2.35,5.09-6,6.63,1.68-4.48.33-7.58-1.79-10.48-1.45-2-2.93-4-4.45-5.94-1.14-1.46-1.75-2.93-.9-4.78s1-4-1.31-5-4.34,0-5.73,2.08a25.05,25.05,0,0,0-1.37,2.62c-3,5.71-5.86,11.45-8.93,17.09-1.89,3.48-6.11,5.81-8.53,4.6-3.75-1.86-2-5.33-2-8.24a5.69,5.69,0,0,1,.34-1.44A69.69,69.69,0,0,1,161.9,55c1.44-2.92.58-4.09-2.64-4.21A4.32,4.32,0,0,0,155,53.27c-.94,1.73-1.77,3.53-2.55,5.34-1.11,2.55-3.54,2.39-5.44,2s-.65-2.26-.57-3.45a16.39,16.39,0,0,0-.28-5.5c-1.31-4.66-5.19-6.94-10.1-5.91-4.7,1-7.22,5.78-5.39,11.09a12,12,0,0,0,2.95,4.56c4,4,4,4,.67,8.82a24.39,24.39,0,0,1-4.07,4.65c-2.13,1.87-4.66,3.59-7.61,2.1-2.67-1.34-2.48-4.08-2.25-6.55a25.12,25.12,0,0,1,1.18-5.7c1-2.94,2.38-5.75,3.56-8.63.58-1.41,1.1-2.92-.73-3.85a3.27,3.27,0,0,0-4.57,1.18,23.05,23.05,0,0,0-2.38,5.4c-2.07,5.56-4.3,11.06-8.26,15.65-1.5,1.74-3.3,3.29-5.81,2.41s-2.72-3.3-2.78-5.56c-.18-6.27,2.72-11.39,6.36-16.21.94-1.26,2.39-2.53.49-4.09s-3.84-1.66-5.31.18c-5.36,6.68-9.73,13.83-8.64,22.89C94,78.2,95.84,81.49,99.91,83a10.86,10.86,0,0,0,11.18-2.12c1.49-1.25,3-2.48,4.39-3.64,4.16,7.71,10.37,8.88,17.88,3,.68-.53,1.31-1.13,1.95-1.72a28.52,28.52,0,0,0,7.37-10.15C144.05,65,146.83,65.72,149,66c2.49.32.85,2.49.71,3.88-.06.59-.08,1.22-.1,1.84-.38,9.34,6.59,13.82,15.9,9.67A22.75,22.75,0,0,0,168,80a2.63,2.63,0,0,1,3.13-.22c8,4.69,16.22,3.81,24.58,1.32,1-.29,1.81-1.16,3.08-.23,3.74,2.76,5.14,2.34,6.83-2.15,2.46-6.54,6.86-11.67,11.94-16.31.81-.74,1.61-1.93,3.33-1.32-.16.62-.25,1.2-.45,1.74-1.52,4.16-3.62,8.17-4,12.66-.48,5.63,2.37,8,8,6.92A34.31,34.31,0,0,0,235.49,78c1.35-.83,2.1-1,3.21.62,4.13,6.12,11.15,6.75,16.61,1.68,1.25-1.15,2.34-2.46,3.54-3.74,4.23,7.72,9,9.25,16,5.12a25.35,25.35,0,0,0,3.86-2.91,31.1,31.1,0,0,0,7.52-10c.88-1.84,1.86-3.31,4.17-2.69s1,2.48,1.06,3.73c.11,7.44,4,12.06,11.47,13.18,6.74,1,12.55-1.44,17.68-5.48,2.12-1.67,3.21-2.54,4.59.75s4.27,4.58,7.88,4.61c4.93,0,8.87-2.12,12.56-5,.81-.65,1.28-1.86,2.59-1.77,4.48,7.34,9.91,8.77,17.6,4.67a27.13,27.13,0,0,0,7.24-5.8c1.34-1.46,2.37-3.12.5-4.82-1.73-1.55-3.18-.52-4.47.88a18.27,18.27,0,0,1-7.88,5.46c-2.21.69-4.19.47-5.64-1.58C353.24,71.59,354,64.73,357,62c8.85-8.13,16.71-17.9,20.56-29.38a17.55,17.55,0,0,0,.79-3.5A10.59,10.59,0,0,0,377.25,23.06Zm-37.38,7.51c1.23-2.08,3-4.92,5.7-3.68s1.1,4.22.42,6.29c-2.87,8.67-8.19,15.88-14.45,22.53C332.86,46.8,335.31,38.32,339.87,30.57ZM216.26,28.42c1.34-2.15,3.13-5.08,6-3.62s1,4.49.11,6.56c-3,7.19-7.95,13.13-13.55,18.58C210,42.23,212.18,35,216.26,28.42ZM138.91,59.07c-2.27-.16-3.09-2.66-3-4.88,0-1.7.74-3.36,2.81-3.18,2.46.21,2.12,2.3,2.21,4.2C140.89,56.73,141.21,59.24,138.91,59.07ZM183,77.45a7.92,7.92,0,0,1-7.49-2.26c-.5-.5-.17-1.16.1-1.72,1.85-3.71,3.69-7.43,5.82-11.72,2.73,3.78,4.51,7,4.89,10.74C186.58,75,185.67,76.91,183,77.45Zm99.56-18.39c-2.2-.11-3.07-2.6-3-4.83,0-1.71.73-3.3,2.73-3.26,2.47.06,2.3,2.09,2.4,4C284.59,56.44,284.89,59.18,282.56,59.06ZM299,67.37c-.29-1.13-.21-2.47.8-3A5.59,5.59,0,0,0,303,59.58c.27-2,2.72-2.54,4-2.76,3.89-.06,5.31,2,3.73,4.5-2.36,3.82-6.58,5-10.47,6.53A.83.83,0,0,1,299,67.37ZM370.9,31.48c-2.47,9.53-8.41,17-14.86,24.23C357.6,46.2,360,37,365.5,28.94c1-1.49,2.67-3.08,4.7-2.11S371.31,29.89,370.9,31.48Z"/><path class="cls-1" d="M98.88,17.21c-4,.23-3.24-2.41-3.26-4.66,0-6.39-.28-6.64-6.71-6.65a8.52,8.52,0,0,0-1.13,0c-2.13.23-3.57-.18-3.65-2.8,0-1.5-.94-3.07-2.74-2.95S78.67,1.8,78.73,3.57,78.18,6,76.37,5.92c-1.63-.1-3.23.24-3.34-2.27S71.54,0,68.86,0Q47.7.11,26.54,0c-2.45,0-3.9,1.08-3.95,3.4C22.54,5.33,21.93,6,20,5.94s-3.08-.2-3.14-2.5C16.8,1.8,16.05,0,14,.16c-1.88.1-2.75,1.72-2.69,3.43.09,2.17-1.06,2.3-2.78,2.34C5.64,6,2.51,5.08,0,7.43V9.65c1,2.1,2.85,2.47,5,2.58,5.12.26,5.14.3,5.15,5.31,0,17,.24,34-.11,50.92C9.84,75.89,13.32,80.29,19.68,83A44.93,44.93,0,0,0,39,87l1.42,0c5.64-.17,10.2.3,15.84-.31a63.48,63.48,0,0,0,20.47-5.18c5.24-2.37,7.86-6.22,7.78-12.24-.22-17.87-.1-35.75,0-53.62,0-1.81-1.11-4.27,2.66-4.35,4.06-.09,2.63,2.59,2.83,4.49a32.43,32.43,0,0,1,0,3.69,2.57,2.57,0,0,0,2.37,2.84,38.46,38.46,0,0,0,6.35,0,2.41,2.41,0,0,0,2.3-2.49C101,18.44,100.17,17.13,98.88,17.21ZM54,5.85c3.74.13,7.49.14,11.22,0,2.26-.08,2.3,1.17,2.31,2.8s0,2.92-2.3,2.75c-2.11-.15-4.24,0-6.36,0-1.62,0-3.24,0-4.86,0-1.82,0-3.38.19-3.38-2.53S51.69,5.77,54,5.85Zm-6,38.79a72.44,72.44,0,0,0,19.61-2.41c1.86-.53,3.85-1.24,3.21-3.67-.69-2.67-2.75-2.27-4.83-1.65a67.45,67.45,0,0,1-12.15,2c-2.19.24-3.13-.22-3.17-2.65C50.52,30,50.47,30,56.92,30.7c5.84.67,11.62,1.62,17,4.16,2,.93,4.57,1.82,4.49,4.41-.08,2.35-2.52,3.2-4.42,4.07C65.75,47.09,56.93,48,48.05,48c-8.64.05-17.21-.83-25.29-4.17-2.33-1-5.6-1.71-5.51-4.77s3.28-3.76,5.64-4.74a56.64,56.64,0,0,1,19-3.83c1.11-.05,2.94-1,3.12,1.34s-1.6,1.87-2.81,1.94a66.1,66.1,0,0,0-13.64,2.11c-1.79.49-3.84.86-3.81,3.34,0,2.31,2,2.59,3.64,3.06A72.71,72.71,0,0,0,47.94,44.64ZM30.68,57.4c-2.68-.46-2.63-2.14-2.45-4,.25-2.66,2.14-1.34,3.38-1.22,3.7.33,7.39,1.06,11.1,1.17,3,.1,2.13,2,2.29,3.55.19,1.92-.85,2.36-2.82,2A106.1,106.1,0,0,1,30.68,57.4Zm3,10.36c0,1.92-1.64,1-2.55.78a36.16,36.16,0,0,1-11.54-4.09c-2.11-1.27-3.29-3-2.14-5.69A60.66,60.66,0,0,0,32,63.27C35,63.77,33.67,66.18,33.65,67.76Zm8.51-3.37c2,.14,4,0,6,0v0c1.62,0,3.24.08,4.84,0,1.85-.12,3.36-.38,3.38,2.38,0,2.41-.79,3.22-3.11,3.27-3.84.07-7.68.14-11.53-.09-2.45-.15-2.24-1.62-2.3-3.27C39.31,64.64,40.33,64.25,42.16,64.39Zm12-5.62c-1.3,0-3.44,1.19-3.57-2.12-.1-2.65.92-3.3,3.4-3.41,3.47-.16,6.91-.86,10.38-1.19,1.09-.11,2.95-1.45,3,1.07.06,1.7.77,3.73-2.15,4.21A86.89,86.89,0,0,1,54.16,58.77Zm9.69,4.42a47.56,47.56,0,0,0,14.44-4.73c1.13,3.08-.32,4.79-2.49,6.12A32.89,32.89,0,0,1,65,68.46c-1.21.24-2.94,1.16-3-1.21C61.87,65.65,61.21,63.63,63.85,63.19Zm13-10.5c-1,.73-1.84,1.8-3.21,1.49-.66-.15-.52-1-.54-1.59,0-1.47-.17-3,1.71-3.6,1.15-.4,2.24-1,3.51-1.56C79.15,49.86,78.48,51.45,76.87,52.69ZM42.4,5.82c2.18,0,2.91.8,2.55,2.81.35,1.93-.24,2.87-2.48,2.81-2-.06-3.15-.32-3.11-2.75C39.39,6.41,40.23,5.83,42.4,5.82Zm-11.18,0c2.25,0,2.82.92,2.5,2.87.38,2-.38,2.77-2.54,2.75s-3.07-.44-3.06-2.8S29.12,5.86,31.22,5.82Zm-11.87,5.5c1.9.08,3.34,0,3.26,2.62s2,3,4.19,3c5.1,0,10.2.12,15.3,0,2.34-.08,3.27.73,2.87,2.94-.35,1.94,1.46,4.93-2.68,5.09-8,.31-15.84,1.54-23.17,5C17.3,30.77,17,30,17,28.44c0-2.58,0-5.16,0-7.74,0-2.09,0-4.18,0-6.27C16.92,12.75,16.82,11.22,19.35,11.32ZM17.06,48.38a.7.7,0,0,1,1.12-.48c1.41,1,3.91.6,4.31,2.94a23.06,23.06,0,0,1,0,3.56,6.67,6.67,0,0,1-4-1.77A3.83,3.83,0,0,1,17.06,48.38ZM22.4,76.51c-1.54.18-2.44-.77-3.46-1.4A3.92,3.92,0,0,1,17,70.7a.81.81,0,0,1,1.38-.54c1.45,1.06,4.23.61,4.12,3.46C22.5,74.58,22.45,75.55,22.4,76.51Zm18,4.56C37.2,80.57,34,80,30.82,79.6c-3-.33-2.86-2.33-2.54-4.3.41-2.6,2.34-1,3.54-.94,3.34.26,6.66,1,10,1,2.61.08,3.31,1,3.25,3.49-.07,3-1.73,2.51-3.41,2.35m24-1.88A76.22,76.22,0,0,1,54.35,81c-2.36.11-4.19.63-3.75-3.21.21-1.86,1-2.09,2.61-2.24,3.84-.35,7.65-.93,11.49-1.35,1-.11,2.74-1.11,2.7,1.11C67.38,76.78,68.38,78.82,65.63,79.37ZM76.8,75.21c-1,.64-2.43,2.3-3.43.67a3.11,3.11,0,0,1,1-4.49c1.2-.62,2.45-1.13,3.91-1.79C79.22,72.13,78.6,74,76.8,75.21Zm1.9-44.27a58.78,58.78,0,0,0-25-5.93c-4-.13-2.77-2.8-3-4.91-.31-2.45.7-3.23,3.15-3.16,5,.16,10,0,15,.07,2.5,0,4.25-.8,4.3-3.45,0-2.91,2.12-2.05,3.7-2.19,2.2-.19,1.93,1.36,1.93,2.7C78.7,19.48,78.7,24.89,78.7,30.94Z"/><path class="cls-2" d="M169.47,38.6a5.42,5.42,0,0,1-5.59,5.61c-3.17,0-5.08-1.66-5.13-4.54-.05-3.19,2.16-5.22,5.8-5.25C167.4,34.4,169.4,35.41,169.47,38.6Z"/></g></g></svg>